<?xml version="1.0" encoding="iso-8859-1"?>
<!-- Generator: Adobe Illustrator 22.0.1, SVG Export Plug-In . SVG Version: 6.00 Build 0)  -->
<svg version="1.1" id="Calque_1" xmlns="http://www.w3.org/2000/svg" xmlns:xlink="http://www.w3.org/1999/xlink" x="0px" y="0px"
	 viewBox="0 0 16 16" style="enable-background:new 0 0 16 16;" xml:space="preserve">
<g transform="translate(0,-952.36215)">
	<path d="M5.273,965.827c0-0.003,0-0.007,0-0.01v-7.636c0-0.208,0.156-0.364,0.364-0.364h4.727c0.208,0,0.364,0.156,0.364,0.364
		v9.091c0,0.208-0.156,0.364-0.364,0.364H5.636c-0.208,0-0.364-0.156-0.364-0.364 M4.545,967.261c0,0.003,0,0.007,0,0.01
		c0,0.598,0.493,1.091,1.091,1.091h4.727c0.598,0,1.091-0.493,1.091-1.091v-9.091c0-0.442-0.271-0.824-0.653-0.994
		c0.065-0.136,0.108-0.289,0.108-0.46c0-0.481-0.319-0.891-0.756-1.034c0.017-0.075,0.028-0.153,0.028-0.239
		c0-0.262-0.059-0.559-0.25-0.813c-0.148-0.195-0.381-0.343-0.659-0.472v-0.534c0-0.699-0.574-1.273-1.273-1.273
		s-1.273,0.574-1.273,1.273v0.534c-0.278,0.129-0.511,0.276-0.659,0.472c-0.191,0.253-0.25,0.551-0.25,0.813
		c0,0.086,0.011,0.164,0.028,0.239c-0.436,0.143-0.756,0.553-0.756,1.034c0,0.171,0.043,0.324,0.108,0.46
		c-0.382,0.17-0.653,0.552-0.653,0.994v7.636 M8,953.089c0.308,0,0.545,0.237,0.545,0.545v0.761c0.001,0.154,0.099,0.29,0.244,0.341
		c0.326,0.114,0.484,0.243,0.563,0.347c0.079,0.104,0.102,0.204,0.102,0.369c0,0.047-0.021,0.11-0.051,0.182H6.597
		c-0.03-0.072-0.051-0.135-0.051-0.182c0-0.165,0.024-0.265,0.102-0.369c0.079-0.104,0.236-0.232,0.563-0.347
		c0.145-0.05,0.243-0.187,0.244-0.341v-0.761C7.454,953.326,7.691,953.089,8,953.089z M6.182,956.362h3.636
		c0.208,0,0.364,0.156,0.364,0.364c0,0.183-0.124,0.299-0.25,0.347c-0.016,0.005-0.031,0.01-0.045,0.017H6.108
		c-0.013-0.006-0.026-0.012-0.04-0.017c-0.126-0.047-0.25-0.163-0.25-0.347C5.818,956.518,5.974,956.362,6.182,956.362z
		 M7.96,958.72c-0.187,0.021-0.328,0.181-0.324,0.369v7.273c-0.003,0.201,0.158,0.366,0.358,0.369
		c0.201,0.003,0.366-0.158,0.369-0.359c0-0.003,0-0.007,0-0.01v-1.091h0.909c0.201,0.003,0.366-0.158,0.369-0.359
		c0.003-0.201-0.158-0.366-0.358-0.369c-0.003,0-0.007,0-0.01,0H8.364v-1.455h0.909c0.201,0.003,0.366-0.158,0.369-0.359
		c0.003-0.201-0.158-0.366-0.358-0.369c-0.003,0-0.007,0-0.01,0H8.364v-1.455h0.909c0.201,0.003,0.366-0.158,0.369-0.359
		c0.003-0.201-0.158-0.366-0.358-0.369c-0.003,0-0.007,0-0.01,0H8.364v-1.091c0.004-0.201-0.155-0.367-0.356-0.371
		C7.992,958.718,7.976,958.718,7.96,958.72z"/>
</g>
</svg>
