<?xml version="1.0" encoding="iso-8859-1"?>
<!-- Generator: Adobe Illustrator 22.0.1, SVG Export Plug-In . SVG Version: 6.00 Build 0)  -->
<svg version="1.1" id="Calque_1" xmlns="http://www.w3.org/2000/svg" xmlns:xlink="http://www.w3.org/1999/xlink" x="0px" y="0px"
	 viewBox="0 0 16 16" style="enable-background:new 0 0 16 16;" xml:space="preserve">
<g>
	<path d="M15.287,15.661c0.001-0.006,0.001-0.012,0.002-0.018c0.004-0.022,0.007-0.044,0.007-0.067c0-0.001,0-0.001,0-0.002
		c0-0.014-0.003-0.027-0.004-0.04c-0.001-0.014-0.001-0.027-0.004-0.042c0-0.001,0-0.003-0.001-0.004c0,0,0-0.001,0-0.001
		c-0.094-0.481-0.286-1.402-0.488-2.363h0.104c0.001,0,0.001,0,0.002,0c0.235,0,0.425-0.19,0.425-0.425
		c0-0.047-0.007-0.092-0.021-0.133l-0.313-1.377c-0.044-0.194-0.216-0.331-0.415-0.331h-0.259c-0.026-0.122-0.05-0.238-0.072-0.346
		c-0.451-2.178-1.695-2.479-2.972-2.479h-0.968V7.483c0-0.453-0.36-0.821-0.803-0.821H9.382V1.293C9.382,0.666,8.902,0,8.012,0
		c-0.846,0-1.37,0.671-1.37,1.293v5.369h-0.2C6,6.662,5.64,7.03,5.64,7.483v0.551H4.687c-1.277,0-2.521,0.3-2.972,2.479
		c-0.022,0.108-0.046,0.224-0.072,0.346H1.396c-0.204,0-0.379,0.144-0.418,0.344l-0.274,1.416c-0.024,0.125,0.009,0.253,0.089,0.352
		c0.081,0.098,0.201,0.155,0.328,0.155h0.045c-0.201,0.958-0.394,1.88-0.488,2.363c0,0,0,0.001,0,0.001
		c0,0.001-0.001,0.003-0.001,0.004c-0.003,0.014-0.003,0.028-0.004,0.042c-0.001,0.013-0.004,0.026-0.004,0.039
		c0,0.001,0,0.001,0,0.002c0,0.023,0.003,0.045,0.007,0.067c0.001,0.006,0.001,0.012,0.002,0.018
		c0.004,0.018,0.01,0.035,0.016,0.053c0.017,0.049,0.043,0.095,0.076,0.134c0.031,0.037,0.068,0.068,0.111,0.093
		c0.016,0.009,0.031,0.019,0.049,0.026c0.006,0.003,0.013,0.004,0.019,0.006c0.02,0.007,0.041,0.015,0.062,0.019
		c0.001,0,0.001,0,0.002,0.001C1.041,15.997,1.068,16,1.095,16c0,0,0.001,0,0.001,0h2.277c0,0,0.001,0,0.001,0c0,0,0.001,0,0.001,0
		h9.393c0,0,0.001,0,0.001,0s0.001,0,0.001,0h2.099c0.001,0,0.001,0,0.001,0c0.027,0,0.054-0.003,0.082-0.008
		c0.001,0,0.001,0,0.002-0.001c0.022-0.004,0.043-0.011,0.063-0.019c0.006-0.002,0.012-0.003,0.018-0.006
		c0.018-0.008,0.034-0.018,0.051-0.027c0.042-0.025,0.078-0.056,0.108-0.092c0.033-0.039,0.058-0.083,0.076-0.131
		C15.276,15.698,15.283,15.68,15.287,15.661z M1.637,12.275l0.11-0.566h12.495l0.129,0.566H1.637z M7.493,1.293
		c0-0.184,0.161-0.442,0.519-0.442c0.409,0,0.519,0.278,0.519,0.442v5.369H7.493V1.293z M6.49,7.512H9.46v0.522H6.49V7.512z
		 M2.548,10.685c0.317-1.531,0.942-1.8,2.139-1.8h6.591c1.197,0,1.822,0.269,2.139,1.801c0.011,0.056,0.024,0.114,0.036,0.173H2.512
		C2.525,10.799,2.537,10.741,2.548,10.685z M13.929,13.125c0.157,0.747,0.312,1.484,0.422,2.024h-1.225l-0.253-1.429
		c-0.041-0.231-0.261-0.385-0.493-0.345c-0.231,0.041-0.386,0.262-0.345,0.493l0.227,1.281h-1.373l-0.042-0.81
		c-0.012-0.235-0.212-0.414-0.447-0.403c-0.235,0.012-0.415,0.212-0.403,0.447l0.04,0.766h-1.63v-1.355
		c0-0.235-0.19-0.425-0.425-0.425c-0.235,0-0.425,0.19-0.425,0.425v1.355H6.106l0.04-0.766c0.012-0.235-0.168-0.435-0.403-0.447
		c-0.232-0.012-0.435,0.168-0.447,0.403l-0.042,0.81H3.881l0.227-1.281c0.041-0.231-0.113-0.452-0.345-0.493
		c-0.232-0.041-0.452,0.113-0.493,0.345l-0.253,1.429H1.614c0.11-0.541,0.265-1.278,0.422-2.024H13.929z"/>
</g>
</svg>
