<?xml version="1.0" encoding="iso-8859-1"?>
<!-- Generator: Adobe Illustrator 22.0.1, SVG Export Plug-In . SVG Version: 6.00 Build 0)  -->
<svg version="1.1" id="Layer_1" xmlns="http://www.w3.org/2000/svg" xmlns:xlink="http://www.w3.org/1999/xlink" x="0px" y="0px"
	 viewBox="0 0 16 16" style="enable-background:new 0 0 16 16;" xml:space="preserve">
<g>
	<path d="M14.672,2.328C14.463,2.12,14.198,2.011,13.873,2h-1.875V1.562c0-0.156-0.055-0.289-0.164-0.398S11.592,1,11.436,1
		c-0.156,0-0.289,0.055-0.398,0.164c-0.109,0.109-0.164,0.242-0.164,0.398V2h-5.75V1.562c0-0.156-0.055-0.289-0.164-0.398
		S4.718,1,4.562,1S4.273,1.055,4.164,1.164S4,1.406,4,1.562V2H2.125C1.802,2.011,1.536,2.12,1.328,2.328
		C1.12,2.537,1.01,2.802,1,3.125v10.75c0.01,0.323,0.12,0.589,0.328,0.797S1.802,14.989,2.125,15h11.75
		c0.323-0.011,0.589-0.12,0.797-0.328c0.208-0.209,0.317-0.474,0.328-0.797V3.125C14.989,2.802,14.88,2.536,14.672,2.328z
		 M13.875,13.875H2.125V6h11.75V13.875z M13.875,4.875H2.125v-1.75H4v0.313c0,0.156,0.056,0.289,0.165,0.398
		C4.274,3.945,4.407,4,4.563,4s0.29-0.055,0.399-0.164c0.109-0.109,0.164-0.242,0.164-0.398V3.125h5.75v0.313
		c0,0.156,0.055,0.289,0.164,0.398C11.149,3.945,11.282,4,11.438,4s0.289-0.055,0.398-0.164S12,3.594,12,3.438V3.125h1.875V4.875z"
		/>
	<path d="M5.732,10.232h1.759v1.76c0,0.138,0.05,0.258,0.143,0.346c0.091,0.09,0.209,0.137,0.339,0.137s0.248-0.047,0.337-0.135
		c0.095-0.091,0.145-0.211,0.145-0.348v-1.76h1.812c0.133,0,0.251-0.05,0.342-0.145c0.082-0.086,0.131-0.196,0.14-0.356
		C10.74,9.609,10.692,9.5,10.61,9.414c-0.09-0.096-0.209-0.146-0.343-0.146H8.456V7.509c0-0.133-0.05-0.252-0.145-0.342
		c-0.087-0.083-0.197-0.132-0.354-0.14c-0.123,0.008-0.233,0.057-0.32,0.14C7.542,7.257,7.492,7.375,7.492,7.509v1.759H5.732
		c-0.137,0-0.257,0.051-0.349,0.146C5.296,9.505,5.25,9.621,5.25,9.75c0,0.13,0.046,0.246,0.134,0.338
		C5.474,10.183,5.595,10.232,5.732,10.232z"/>
</g>
</svg>
