<?xml version="1.0" encoding="iso-8859-1"?>
<!-- Generator: Adobe Illustrator 22.0.1, SVG Export Plug-In . SVG Version: 6.00 Build 0)  -->
<svg version="1.1" id="Layer_1" xmlns="http://www.w3.org/2000/svg" xmlns:xlink="http://www.w3.org/1999/xlink" x="0px" y="0px"
	 viewBox="0 0 16 16" style="enable-background:new 0 0 16 16;" xml:space="preserve">
<g>
	<path d="M13,10.584c0.156,0,0.289-0.055,0.398-0.164c0.109-0.109,0.164-0.242,0.164-0.398c0-0.156-0.055-0.289-0.164-0.398
		C13.289,9.515,13.156,9.46,13,9.46c-0.156,0-0.289,0.055-0.398,0.164c-0.11,0.109-0.164,0.242-0.164,0.398
		c0,0.156,0.055,0.289,0.164,0.398C12.711,10.529,12.844,10.584,13,10.584z"/>
	<path d="M3,10.584c0.156,0,0.289-0.055,0.398-0.164c0.109-0.109,0.164-0.242,0.164-0.398c0-0.156-0.055-0.289-0.164-0.398
		C3.289,9.515,3.156,9.46,3,9.46c-0.156,0-0.289,0.055-0.398,0.164c-0.11,0.109-0.164,0.242-0.164,0.398
		c0,0.156,0.055,0.289,0.164,0.398C2.711,10.529,2.844,10.584,3,10.584z"/>
	<path d="M14.875,7.522H15l-0.286-1.411c-0.167,0.028-0.337,0.052-0.512,0.052c-0.214,0-0.422-0.023-0.624-0.065l0.297,1.424H2.125
		l0.719-3.75h8.385c-0.047-0.212-0.075-0.431-0.075-0.658c0-0.16,0.023-0.314,0.047-0.467H3.125
		c-0.323,0.011-0.612,0.12-0.867,0.328C2.002,3.184,1.844,3.439,1.781,3.741L1,7.522h0.125C0.802,7.533,0.536,7.642,0.328,7.85
		C0.119,8.059,0.01,8.324,0,8.647v2.75c0.01,0.292,0.106,0.542,0.289,0.75C0.471,12.355,0.708,12.48,1,12.522
		c0.01,0.562,0.205,1.034,0.586,1.414c0.38,0.38,0.851,0.576,1.414,0.586c0.562-0.01,1.033-0.206,1.414-0.586
		c0.38-0.38,0.575-0.851,0.586-1.414h6c0.01,0.562,0.205,1.034,0.586,1.414c0.38,0.38,0.851,0.576,1.414,0.586
		c0.562-0.01,1.033-0.206,1.414-0.586c0.38-0.38,0.575-0.851,0.586-1.414c0.291-0.042,0.528-0.167,0.711-0.375
		c0.182-0.208,0.278-0.458,0.289-0.75v-2.75c-0.011-0.323-0.12-0.589-0.328-0.797C15.463,7.642,15.197,7.533,14.875,7.522z
		 M14.875,11.397h-1v1.125c-0.011,0.25-0.097,0.456-0.258,0.617C13.455,13.3,13.25,13.381,13,13.381s-0.456-0.08-0.617-0.242
		c-0.162-0.161-0.248-0.367-0.258-0.617v-1.125h-8.25v1.125c-0.011,0.25-0.097,0.456-0.258,0.617C3.455,13.3,3.25,13.381,3,13.381
		s-0.456-0.08-0.617-0.242c-0.162-0.161-0.248-0.367-0.258-0.617v-1.125h-1v-2.75h13.75V11.397z"/>
</g>
<path d="M15.7,3.942c0.097,0.097,0.146,0.21,0.146,0.338c0,0.128-0.049,0.238-0.146,0.331c-0.097,0.093-0.21,0.139-0.338,0.139
	s-0.241-0.044-0.338-0.132l-0.822-0.822L13.38,4.618c-0.097,0.088-0.21,0.132-0.338,0.132s-0.241-0.046-0.338-0.139
	c-0.097-0.093-0.146-0.203-0.146-0.331c0-0.128,0.049-0.241,0.146-0.338l0.822-0.822l-0.822-0.834
	c-0.097-0.097-0.146-0.208-0.146-0.331s0.049-0.234,0.146-0.331c0.097-0.097,0.21-0.146,0.338-0.146s0.241,0.044,0.338,0.132
	l0.822,0.834l0.822-0.834c0.097-0.088,0.21-0.132,0.338-0.132s0.241,0.049,0.338,0.146c0.097,0.097,0.146,0.208,0.146,0.331
	S15.797,2.189,15.7,2.286L14.878,3.12L15.7,3.942z"/>
</svg>
