<?xml version="1.0" encoding="iso-8859-1"?>
<!-- Generator: Adobe Illustrator 22.0.1, SVG Export Plug-In . SVG Version: 6.00 Build 0)  -->
<svg version="1.1" id="Layer_1" xmlns="http://www.w3.org/2000/svg" xmlns:xlink="http://www.w3.org/1999/xlink" x="0px" y="0px"
	 viewBox="0 0 16 16" style="enable-background:new 0 0 16 16;" xml:space="preserve">
<path d="M15.672,7.266C15.88,7.474,15.989,7.74,16,8.063v2.75c-0.011,0.292-0.107,0.542-0.289,0.75
	c-0.183,0.208-0.42,0.333-0.711,0.375c-0.011,0.563-0.206,1.034-0.586,1.414c-0.381,0.38-0.852,0.576-1.414,0.586
	c-0.563-0.01-1.034-0.206-1.414-0.586C11.205,12.972,11.01,12.5,11,11.938H5c-0.011,0.563-0.206,1.034-0.586,1.414
	C4.033,13.732,3.562,13.928,3,13.938c-0.563-0.01-1.034-0.206-1.414-0.586C1.205,12.972,1.01,12.5,1,11.938
	c-0.292-0.042-0.529-0.167-0.711-0.375C0.106,11.355,0.01,11.105,0,10.813v-2.75C0.01,7.74,0.119,7.475,0.328,7.266
	c0.208-0.208,0.474-0.317,0.797-0.328H1l0.781-3.781C1.844,2.854,2.002,2.599,2.258,2.39c0.255-0.208,0.544-0.317,0.867-0.328h9.75
	c0.322,0.011,0.611,0.117,0.867,0.32c0.255,0.203,0.419,0.461,0.492,0.773L15,6.938h-0.125C15.197,6.949,15.463,7.058,15.672,7.266z
	 M14.875,8.063H1.125v2.75h1v1.125c0.01,0.25,0.096,0.456,0.258,0.617C2.544,12.717,2.75,12.797,3,12.797s0.455-0.081,0.617-0.242
	c0.161-0.161,0.247-0.367,0.258-0.617v-1.125h8.25v1.125c0.01,0.25,0.096,0.456,0.258,0.617c0.161,0.162,0.367,0.242,0.617,0.242
	s0.455-0.081,0.617-0.242c0.161-0.161,0.247-0.367,0.258-0.617v-1.125h1V8.063z M2.125,6.938h11.75l-0.781-3.75H2.844L2.125,6.938z
	 M2.602,9.04C2.711,8.931,2.844,8.876,3,8.876S3.289,8.931,3.398,9.04s0.164,0.242,0.164,0.398S3.507,9.727,3.398,9.836
	S3.156,10,3,10S2.711,9.945,2.602,9.836S2.438,9.593,2.438,9.438S2.492,9.149,2.602,9.04z M12.602,9.04
	C12.711,8.931,12.844,8.876,13,8.876s0.289,0.055,0.398,0.164s0.164,0.242,0.164,0.398s-0.055,0.289-0.164,0.398S13.156,10,13,10
	s-0.289-0.055-0.398-0.164s-0.164-0.242-0.164-0.398S12.492,9.149,12.602,9.04z"/>
</svg>
