<?xml version="1.0" encoding="iso-8859-1"?>
<!-- Generator: Adobe Illustrator 22.0.1, SVG Export Plug-In . SVG Version: 6.00 Build 0)  -->
<svg version="1.1" id="Calque_1" xmlns="http://www.w3.org/2000/svg" xmlns:xlink="http://www.w3.org/1999/xlink" x="0px" y="0px"
	 viewBox="0 0 16 16" style="enable-background:new 0 0 16 16;" xml:space="preserve">
<path d="M14.917,12.95c-0.256-0.327-0.661-0.506-1.05-0.506h-0.672L9.4,0.373C9.329,0.15,9.122,0,8.889,0.001H8H7.111
	C7.093,0,7.074,0,7.056,0.001C6.843,0.022,6.664,0.169,6.6,0.373L2.806,12.445H2.133c-0.389,0-0.794,0.178-1.05,0.506
	c-0.256,0.327-0.372,0.765-0.372,1.272s0.116,0.939,0.372,1.267C1.34,15.816,1.744,16,2.133,16h11.733
	c0.389,0,0.794-0.184,1.05-0.511c0.256-0.327,0.372-0.76,0.372-1.267S15.173,13.277,14.917,12.95z M7.506,1.067H8h0.494l0.894,2.844
	H6.611L7.506,1.067z M6.278,4.978h3.444l0.389,1.244H5.889L6.278,4.978z M5.55,7.289h4.9l0.894,2.844H4.656L5.55,7.289z M4.317,11.2
	L4.317,11.2l7.367,0l0.389,1.244H3.928L4.317,11.2z M14.078,14.833c-0.065,0.083-0.108,0.1-0.211,0.1H2.133
	c-0.103,0-0.146-0.017-0.211-0.1c-0.065-0.083-0.144-0.27-0.144-0.611c0-0.341,0.08-0.528,0.144-0.611s0.108-0.1,0.211-0.1h0.811
	c0.026,0.002,0.052,0.002,0.078,0H3.2h0.056h9.506h0.217h0.056h0.833c0.103,0,0.146,0.017,0.211,0.1
	c0.065,0.083,0.144,0.27,0.144,0.611C14.222,14.563,14.143,14.751,14.078,14.833z"/>
</svg>
