<?xml version="1.0" encoding="iso-8859-1"?>
<!-- Generator: Adobe Illustrator 22.0.1, SVG Export Plug-In . SVG Version: 6.00 Build 0)  -->
<svg version="1.1" id="Layer_1" xmlns="http://www.w3.org/2000/svg" xmlns:xlink="http://www.w3.org/1999/xlink" x="0px" y="0px"
	 viewBox="0 0 16 16" style="enable-background:new 0 0 16 16;" xml:space="preserve">
<g>
	<path d="M1.562,5.781h1.875c0.156,0,0.289-0.055,0.398-0.164s0.164-0.242,0.164-0.398S3.944,4.93,3.835,4.821
		S3.593,4.657,3.437,4.657H1.562c-0.156,0-0.289,0.055-0.398,0.164C1.055,4.93,1,5.063,1,5.219s0.055,0.289,0.164,0.398
		C1.273,5.727,1.406,5.781,1.562,5.781z"/>
	<path d="M1.562,8.578h1.875c0.156,0,0.289-0.055,0.398-0.164s0.164-0.242,0.164-0.398S3.944,7.727,3.835,7.618
		S3.593,7.454,3.437,7.454H1.562c-0.156,0-0.289,0.055-0.398,0.164C1.055,7.727,1,7.86,1,8.016s0.055,0.289,0.164,0.398
		S1.406,8.578,1.562,8.578z"/>
	<path d="M14.672,1.328C14.463,1.12,14.197,1.011,13.875,1H3.125C2.802,1.011,2.536,1.12,2.328,1.328
		C2.119,1.537,2.01,1.802,2,2.125V3c0,0.156,0.055,0.289,0.164,0.398s0.242,0.164,0.398,0.164S2.851,3.507,2.96,3.398
		C3.069,3.289,3.124,3.156,3.124,3V2.125h10.75v11.75H3.124V13c0-0.156-0.055-0.289-0.164-0.398s-0.242-0.164-0.398-0.164
		s-0.289,0.055-0.398,0.164S2,12.844,2,13v0.875c0.01,0.323,0.119,0.589,0.328,0.797C2.536,14.88,2.802,14.989,3.125,15h10.75
		c0.322-0.011,0.588-0.12,0.797-0.328c0.208-0.209,0.317-0.474,0.328-0.797V2.125C14.989,1.802,14.88,1.536,14.672,1.328z"/>
	<path d="M3.836,11.211c0.109-0.109,0.163-0.242,0.163-0.398s-0.055-0.289-0.164-0.398s-0.242-0.164-0.398-0.164H1.562
		c-0.156,0-0.289,0.055-0.398,0.164C1.055,10.524,1,10.657,1,10.813s0.056,0.289,0.165,0.398s0.242,0.164,0.398,0.164h1.875
		C3.594,11.375,3.727,11.32,3.836,11.211z"/>
	<path d="M5.5,11.328c-0.031,0.156-0.006,0.297,0.078,0.422c0.083,0.125,0.203,0.203,0.359,0.234L6.046,12
		c0.135,0,0.255-0.042,0.359-0.125s0.166-0.192,0.188-0.328c0.125-0.583,0.406-1.057,0.844-1.422
		c0.438-0.364,0.955-0.547,1.555-0.547c0.599,0,1.117,0.183,1.555,0.547c0.438,0.365,0.719,0.839,0.844,1.422
		c0.031,0.136,0.096,0.245,0.195,0.328S11.802,12,11.938,12l0.109-0.016c0.156-0.031,0.275-0.109,0.359-0.234
		c0.083-0.125,0.114-0.266,0.094-0.422c-0.178-0.854-0.589-1.544-1.234-2.07c-0.281-0.229-0.586-0.4-0.908-0.534
		c0.158-0.1,0.309-0.212,0.447-0.349c0.484-0.479,0.736-1.083,0.758-1.813c-0.021-0.729-0.273-1.333-0.758-1.813
		C10.321,4.27,9.719,4.02,9,3.999C8.271,4.02,7.664,4.27,7.18,4.749S6.448,5.832,6.438,6.562c0.01,0.729,0.258,1.333,0.742,1.813
		c0.139,0.138,0.291,0.251,0.45,0.351C7.309,8.859,7.005,9.03,6.727,9.258C6.086,9.784,5.677,10.474,5.5,11.328z M7.984,5.547
		C8.255,5.276,8.593,5.136,9,5.125c0.406,0.011,0.744,0.151,1.016,0.422c0.271,0.271,0.406,0.609,0.406,1.016
		c0,0.407-0.136,0.745-0.406,1.016C9.745,7.85,9.407,7.985,9,7.985S8.255,7.85,7.984,7.579C7.713,7.308,7.578,6.97,7.578,6.563
		C7.578,6.156,7.713,5.818,7.984,5.547z"/>
</g>
</svg>
