<?xml version="1.0" encoding="iso-8859-1"?>
<!-- Generator: Adobe Illustrator 22.0.1, SVG Export Plug-In . SVG Version: 6.00 Build 0)  -->
<svg version="1.1" id="Layer_1" xmlns="http://www.w3.org/2000/svg" xmlns:xlink="http://www.w3.org/1999/xlink" x="0px" y="0px"
	 viewBox="0 0 16 16" style="enable-background:new 0 0 16 16;" xml:space="preserve">
<path d="M14.109,6.297c0,1.011-0.245,2.037-0.734,3.078c-0.406,0.854-0.974,1.708-1.703,2.563c-0.667,0.761-1.31,1.398-1.93,1.914
	s-1.081,0.877-1.383,1.086c-0.115,0.073-0.237,0.109-0.367,0.109s-0.248-0.037-0.352-0.109c-0.302-0.208-0.763-0.57-1.383-1.086
	c-0.62-0.516-1.263-1.153-1.93-1.914c-0.729-0.854-1.297-1.708-1.703-2.563c-0.49-1.042-0.734-2.067-0.734-3.078
	c0-0.719,0.167-1.411,0.5-2.078c0.323-0.646,0.771-1.213,1.344-1.703c0.573-0.489,1.224-0.875,1.953-1.156
	C6.427,1.089,7.198,0.953,8,0.953c0.802,0,1.578,0.136,2.328,0.406c0.719,0.281,1.364,0.667,1.938,1.156
	c0.573,0.49,1.021,1.058,1.344,1.703C13.942,4.886,14.109,5.578,14.109,6.297z M12.609,4.719c-0.25-0.51-0.609-0.966-1.078-1.367
	s-1-0.716-1.594-0.945C9.313,2.177,8.667,2.063,8,2.063S6.687,2.178,6.062,2.406C5.468,2.635,4.939,2.951,4.476,3.352
	C4.012,3.753,3.653,4.206,3.398,4.71C3.143,5.215,3.015,5.744,3.015,6.296c0,0.844,0.208,1.714,0.625,2.609
	c0.364,0.761,0.875,1.531,1.531,2.313c0.531,0.604,1.052,1.128,1.563,1.57c0.51,0.443,0.932,0.784,1.266,1.023
	c0.333-0.239,0.755-0.581,1.266-1.023c0.51-0.442,1.031-0.966,1.563-1.57c0.656-0.781,1.167-1.552,1.531-2.313
	c0.417-0.885,0.625-1.75,0.625-2.594C12.984,5.761,12.859,5.23,12.609,4.719z M9.211,3.797c0.38,0.156,0.719,0.386,1.016,0.688
	s0.526,0.644,0.688,1.023c0.161,0.38,0.242,0.781,0.242,1.203s-0.081,0.826-0.242,1.211c-0.162,0.386-0.391,0.727-0.688,1.023
	s-0.636,0.523-1.016,0.68C8.831,9.781,8.427,9.858,8,9.858S7.169,9.78,6.789,9.624C6.409,9.468,6.07,9.24,5.773,8.936
	C5.477,8.634,5.247,8.293,5.086,7.913C4.924,7.533,4.844,7.132,4.844,6.71s0.081-0.823,0.242-1.203s0.391-0.721,0.688-1.023
	s0.635-0.531,1.016-0.688C7.169,3.64,7.573,3.563,8,3.563C8.427,3.563,8.831,3.641,9.211,3.797z M9.438,8.156
	c0.385-0.385,0.588-0.864,0.609-1.438c-0.021-0.583-0.224-1.065-0.609-1.445C9.052,4.892,8.573,4.691,8,4.67
	C7.427,4.691,6.948,4.892,6.563,5.272S5.979,6.134,5.969,6.717C5.979,7.29,6.177,7.77,6.563,8.156C6.948,8.542,7.427,8.738,8,8.749
	C8.573,8.74,9.052,8.542,9.438,8.156z"/>
</svg>
