<?xml version="1.0" encoding="iso-8859-1"?>
<!-- Generator: Adobe Illustrator 22.0.1, SVG Export Plug-In . SVG Version: 6.00 Build 0)  -->
<svg version="1.1" id="Layer_1" xmlns="http://www.w3.org/2000/svg" xmlns:xlink="http://www.w3.org/1999/xlink" x="0px" y="0px"
	 viewBox="0 0 16 16" style="enable-background:new 0 0 16 16;" xml:space="preserve">
<g>
	<path style="fill:none;" d="M6.45,8.05c0,0.169,0.007,0.356,0.024,0.55h0.329l0.8-0.8H6.456C6.452,7.886,6.45,7.971,6.45,8.05z"/>
	<path style="fill:none;" d="M6.549,7h1.854l1.04-1.04l0.103-0.103l0.408-0.408C9.648,5.274,9.174,5.1,8.5,5.1
		C7.243,5.1,6.736,6.055,6.549,7z"/>
	<path style="fill:none;" d="M4.843,10.56l1.048-1.048C5.881,9.473,5.867,9.439,5.857,9.4H4.65c-0.2,0-0.4-0.15-0.4-0.4
		s0.15-0.4,0.4-0.4h1.079C5.712,8.407,5.7,8.208,5.7,8c0-0.068,0.004-0.133,0.006-0.2H4.65c-0.2,0-0.4-0.15-0.4-0.4S4.4,7,4.65,7
		h1.127C6.045,5.302,7.021,4.3,8.5,4.3c0.971,0,1.622,0.308,2.02,0.583l0.049-0.049l1.965-1.965c-0.56-0.496-1.17-0.917-1.862-1.214
		C9.827,1.302,8.939,1.125,8.007,1.125c-0.933,0-1.826,0.183-2.68,0.547C4.504,2.016,3.775,2.505,3.139,3.141
		C2.503,3.777,2.014,4.506,1.67,5.329C1.305,6.173,1.123,7.061,1.123,7.993c0,0.933,0.182,1.826,0.547,2.68
		c0.289,0.692,0.704,1.302,1.199,1.861l1.962-1.962L4.843,10.56z"/>
	<g>
		<path d="M14.484,3.305l-0.816,0.816c0.258,0.378,0.481,0.778,0.66,1.207C14.692,6.183,14.875,7.073,14.875,8
			s-0.177,1.818-0.531,2.672c-0.355,0.823-0.849,1.552-1.485,2.189c-0.636,0.636-1.365,1.125-2.188,1.469
			c-0.844,0.364-1.732,0.547-2.664,0.547c-0.933,0-1.826-0.183-2.68-0.547c-0.429-0.179-0.83-0.402-1.208-0.66l-0.814,0.814
			C4.628,15.448,6.19,15.959,8,16c2.27-0.052,4.159-0.831,5.664-2.336S15.948,10.271,16,8C15.959,6.191,15.448,4.629,14.484,3.305z"
			/>
		<path d="M9.55,9c0-0.236-0.179-0.378-0.367-0.394L8.389,9.4H9.15C9.35,9.4,9.55,9.25,9.55,9z"/>
		<path d="M6.749,11.04C7.204,11.466,7.793,11.7,8.5,11.7c1.7,0,2.45-0.95,2.5-0.9c0.15-0.2,0.1-0.4-0.05-0.55
			c-0.2-0.15-0.4-0.1-0.55,0.05c0,0-0.55,0.7-1.9,0.7c-0.555,0-0.959-0.179-1.257-0.454L6.749,11.04z"/>
		<path d="M5.438,11.158l0.012-0.012l0.776-0.776L6.76,9.835L7.196,9.4l0.8-0.8l0.8-0.8l0.656-0.656l0.598-0.598l0.103-0.103
			l0.509-0.509l0.421-0.421l0.092-0.092l1.954-1.954l0.819-0.819c-0.094-0.104-0.183-0.211-0.284-0.312
			c-0.101-0.101-0.208-0.19-0.312-0.284C11.9,0.738,10.119,0.049,8,0C5.729,0.052,3.841,0.831,2.336,2.336S0.052,5.729,0,8
			c0.049,2.119,0.738,3.9,2.052,5.352c0.094,0.104,0.183,0.211,0.284,0.312c0.101,0.101,0.208,0.19,0.312,0.284l0.818-0.818
			L5.438,11.158z M6.803,8.6H6.474C6.457,8.406,6.45,8.219,6.45,8.05c0-0.079,0.002-0.164,0.006-0.25h1.147L6.803,8.6z M9.546,5.857
			L9.443,5.96L8.403,7H6.549C6.736,6.055,7.243,5.1,8.5,5.1c0.674,0,1.148,0.174,1.454,0.349L9.546,5.857z M1.67,10.673
			c-0.365-0.854-0.547-1.747-0.547-2.68c0-0.932,0.182-1.82,0.547-2.664c0.344-0.823,0.833-1.552,1.469-2.188
			c0.636-0.636,1.365-1.125,2.188-1.469c0.854-0.364,1.747-0.547,2.68-0.547c0.932,0,1.82,0.177,2.664,0.531
			c0.692,0.298,1.302,0.718,1.862,1.214l-1.965,1.965L10.52,4.883C10.122,4.608,9.471,4.3,8.5,4.3C7.021,4.3,6.045,5.302,5.777,7
			H4.65c-0.25,0-0.4,0.15-0.4,0.4s0.2,0.4,0.4,0.4h1.056C5.704,7.867,5.7,7.932,5.7,8c0,0.208,0.012,0.407,0.029,0.6H4.65
			c-0.25,0-0.4,0.15-0.4,0.4s0.2,0.4,0.4,0.4h1.207c0.01,0.039,0.024,0.073,0.034,0.112L4.843,10.56l-0.012,0.012l-1.962,1.962
			C2.374,11.975,1.959,11.365,1.67,10.673z"/>
	</g>
</g>
</svg>
