<?xml version="1.0" encoding="utf-8"?>
<!-- Generator: Adobe Illustrator 22.0.1, SVG Export Plug-In . SVG Version: 6.00 Build 0)  -->
<svg version="1.1" id="Calque_1" xmlns="http://www.w3.org/2000/svg" xmlns:xlink="http://www.w3.org/1999/xlink" x="0px" y="0px"
	 viewBox="0 0 16 16" style="enable-background:new 0 0 16 16;" xml:space="preserve">

<g>
	<path class="st0" d="M13.7,2.3C12.2,0.8,10.3,0.1,8,0C5.7,0.1,3.8,0.8,2.3,2.3C0.8,3.8,0.1,5.7,0,8c0.1,2.3,0.8,4.2,2.3,5.7
		C3.8,15.2,5.7,15.9,8,16c2.3-0.1,4.2-0.8,5.7-2.3c1.5-1.5,2.3-3.4,2.3-5.7C15.9,5.7,15.2,3.8,13.7,2.3z M12.9,12.9
		c-1.3,1.3-2.9,2-4.9,2c-1.9-0.1-3.6-0.7-4.9-2c-1.3-1.3-2-2.9-2-4.9c0.1-1.9,0.7-3.6,2-4.9s2.9-2,4.9-2c1.9,0.1,3.6,0.7,4.9,2
		s2,2.9,2,4.9C14.8,9.9,14.2,11.6,12.9,12.9z"/>
	<path class="st0" d="M8,4.6c1.6,0,2.2,0.8,2.2,0.8c0.2,0.2,0.5,0.2,0.6,0.1C11,5.3,11.1,5,10.9,4.8C10.8,4.8,10,3.7,8,3.7
		c-1.7,0-2.9,1.2-3.2,3.2H3.5C3.2,6.8,3,7,3,7.3s0.2,0.5,0.5,0.5h1.2c0,0.1,0,0.2,0,0.2c0,0.2,0,0.5,0,0.7H3.5C3.2,8.7,3,8.9,3,9.2
		s0.2,0.5,0.5,0.5h1.4c0.4,1.7,1.5,2.7,3.1,2.7c2,0,2.9-1.1,2.9-1.1c0.2-0.2,0.1-0.5-0.1-0.6c-0.2-0.2-0.5-0.1-0.6,0.1
		c0,0-0.6,0.8-2.2,0.8c-1.4,0-2-0.9-2.2-1.9h3c0.2,0,0.5-0.2,0.5-0.5S9,8.7,8.7,8.7H5.6c0-0.2,0-0.4,0-0.6c0-0.1,0-0.2,0-0.3h3.2
		c0.2,0,0.5-0.2,0.5-0.5S9,6.8,8.7,6.8h-3C5.9,5.7,6.5,4.6,8,4.6z"/>
</g>
</svg>
