<?xml version="1.0" encoding="iso-8859-1"?>
<!-- Generator: Adobe Illustrator 22.0.1, SVG Export Plug-In . SVG Version: 6.00 Build 0)  -->
<svg version="1.1" id="Layer_1" xmlns="http://www.w3.org/2000/svg" xmlns:xlink="http://www.w3.org/1999/xlink" x="0px" y="0px"
	 viewBox="0 0 16 16" style="enable-background:new 0 0 16 16;" xml:space="preserve">
<g>
	<path d="M9.707,1.733c2.933,0,4.133,1.467,4.133,1.467c0.267,0.267,0.8,0.4,1.2,0.133c0.267-0.267,0.4-0.8,0.133-1.2
		C15.04,2,13.44,0,9.707,0c-3.2,0-5.333,2.133-5.867,5.867h-2.4c-0.533,0-0.8,0.267-0.8,0.8s0.4,0.8,0.8,0.8h2.267
		c0,0.133,0,0.267,0,0.4c0,0.4,0,0.933,0,1.333H1.44c-0.533,0.133-0.8,0.4-0.8,0.933c0,0.533,0.4,0.8,0.8,0.8h2.667
		C4.774,14.133,6.774,16,9.707,16c3.733,0,5.333-2,5.467-2c0.267-0.4,0.267-0.8-0.133-1.2c-0.4-0.267-0.8-0.267-1.2,0.133
		c0,0-1.2,1.467-4.133,1.467c-2.533,0-3.6-1.6-4.133-3.467h5.467c0.4,0,0.8-0.267,0.8-0.8c0.133-0.533-0.267-0.8-0.667-0.8H5.44
		c0-0.4,0-0.8,0-1.2C5.307,8,5.307,7.733,5.307,7.6h5.867c0.4,0,0.8-0.4,0.8-0.933s-0.4-0.8-0.8-0.8h-5.6
		C5.974,3.733,7.04,1.733,9.707,1.733z"/>
</g>
</svg>
