<?xml version="1.0" encoding="iso-8859-1"?>
<!-- Generator: Adobe Illustrator 22.0.1, SVG Export Plug-In . SVG Version: 6.00 Build 0)  -->
<svg version="1.1" id="Layer_1" xmlns="http://www.w3.org/2000/svg" xmlns:xlink="http://www.w3.org/1999/xlink" x="0px" y="0px"
	 viewBox="0 0 16 16" style="enable-background:new 0 0 16 16;" xml:space="preserve">
<g>
	<path d="M8,0c2.271,0.052,4.159,0.831,5.664,2.336C15.169,3.841,15.948,5.729,16,8c-0.052,2.271-0.831,4.159-2.336,5.664
		C12.159,15.169,10.271,15.948,8,16c-2.271-0.052-4.159-0.831-5.664-2.336C0.831,12.159,0.052,10.271,0,8
		c0.052-2.271,0.831-4.159,2.336-5.664C3.841,0.831,5.729,0.052,8,0z M5.328,1.672C4.505,2.016,3.776,2.505,3.141,3.141
		C2.505,3.776,2.016,4.505,1.672,5.328C1.307,6.172,1.125,7.06,1.125,7.992c0,0.933,0.182,1.826,0.547,2.68
		c0.344,0.823,0.833,1.552,1.469,2.188c0.635,0.636,1.364,1.125,2.188,1.469C6.182,14.692,7.073,14.875,8,14.875
		c0.927,0,1.817-0.183,2.672-0.547c0.823-0.344,1.552-0.833,2.188-1.469c0.635-0.635,1.13-1.364,1.484-2.188
		C14.698,9.818,14.875,8.927,14.875,8c0-0.927-0.183-1.817-0.547-2.672c-0.344-0.823-0.833-1.552-1.469-2.188
		c-0.636-0.635-1.365-1.13-2.188-1.484C9.828,1.302,8.938,1.125,8,1.125C7.073,1.125,6.182,1.308,5.328,1.672z M7.5,12.203
		c0.135,0.136,0.302,0.203,0.5,0.203c0.198,0,0.364-0.067,0.5-0.203c0.135-0.135,0.203-0.302,0.203-0.5
		c0-0.198-0.068-0.364-0.203-0.5C8.364,11.068,8.198,11,8,11c-0.198,0-0.365,0.068-0.5,0.203c-0.136,0.136-0.203,0.302-0.203,0.5
		C7.297,11.901,7.364,12.068,7.5,12.203z M8.445,9.82c0.12-0.12,0.18-0.268,0.18-0.445V3.609c0-0.177-0.06-0.325-0.18-0.445
		C8.325,3.044,8.177,2.984,8,2.984c-0.177,0-0.326,0.06-0.445,0.18c-0.12,0.12-0.18,0.269-0.18,0.445v5.766
		c0,0.177,0.06,0.326,0.18,0.445C7.674,9.94,7.823,10,8,10C8.177,10,8.325,9.94,8.445,9.82z"/>
</g>
</svg>
