<?xml version="1.0" encoding="iso-8859-1"?>
<!-- Generator: Adobe Illustrator 22.0.1, SVG Export Plug-In . SVG Version: 6.00 Build 0)  -->
<svg version="1.1" id="Calque_1" xmlns="http://www.w3.org/2000/svg" xmlns:xlink="http://www.w3.org/1999/xlink" x="0px" y="0px"
	 viewBox="0 0 16 16" style="enable-background:new 0 0 16 16;" xml:space="preserve">
<g>
	<path d="M14,4.5v8.4c0,0.3-0.1,0.6-0.3,0.8S13.2,14,12.9,14H12v0.9c0,0.3-0.1,0.6-0.3,0.8S11.2,16,10.9,16H3.1
		c-0.3,0-0.6-0.1-0.8-0.3S2,15.2,2,14.9V3.1c0-0.3,0.1-0.6,0.3-0.8C2.6,2.1,2.8,2,3.1,2H4V1.1c0-0.3,0.1-0.6,0.3-0.8
		C4.6,0.1,4.8,0,5.1,0h4.4C9.7,0,9.8,0,10,0.1l0.1,0.1c0.1,0.1,0.2,0.1,0.2,0.2l3.3,3.4C13.9,3.9,14,4.2,14,4.5z M10.9,14H5.1
		c-0.3,0-0.6-0.1-0.8-0.3C4.1,13.5,4,13.2,4,12.9V3.1H3.1v11.8h7.7L10.9,14L10.9,14z M12.9,5h-2.7C9.8,5,9.5,4.9,9.3,4.7
		C9.1,4.5,9,4.2,9,3.9V1.1H5.1v11.8h7.7V5H12.9z M9.8,7C9.7,7.1,9.6,7.1,9.4,7.1H6.6c-0.2,0-0.3,0-0.4-0.1S6,6.7,6,6.6
		s0.1-0.3,0.2-0.4S6.4,6,6.6,6h2.9c0.2,0,0.3,0.1,0.4,0.2S10,6.4,10,6.6S10,6.9,9.8,7z M11.8,9c-0.1,0.1-0.2,0.2-0.4,0.2H6.6
		C6.4,9.1,6.3,9.1,6.2,9S6,8.7,6,8.6s0.1-0.3,0.2-0.4S6.4,8,6.6,8h4.9c0.2,0,0.3,0.1,0.4,0.2S12,8.4,12,8.6S12,8.9,11.8,9z M10.8,11
		c-0.1,0.1-0.2,0.2-0.4,0.2H6.6c-0.2,0-0.3-0.1-0.4-0.2S6,10.7,6,10.6s0.1-0.3,0.2-0.4S6.4,10,6.6,10h3.9c0.2,0,0.3,0.1,0.4,0.2
		s0.2,0.2,0.2,0.4S11,10.9,10.8,11z M10.1,3.9h2.1l-2.1-2.2V3.9z"/>
</g>
</svg>
