<?xml version="1.0" encoding="iso-8859-1"?>
<!-- Generator: Adobe Illustrator 22.0.1, SVG Export Plug-In . SVG Version: 6.00 Build 0)  -->
<svg version="1.1" id="Layer_1" xmlns="http://www.w3.org/2000/svg" xmlns:xlink="http://www.w3.org/1999/xlink" x="0px" y="0px"
	 viewBox="0 0 16 16" style="enable-background:new 0 0 16 16;" xml:space="preserve">
<path d="M13.664,2.336C15.169,3.841,15.948,5.73,16,8c-0.052,2.271-0.831,4.159-2.336,5.664S10.27,15.948,8,16
	c-2.271-0.052-4.159-0.831-5.664-2.336S0.052,10.271,0,8c0.052-2.271,0.831-4.159,2.336-5.664S5.729,0.052,8,0
	C10.271,0.052,12.159,0.831,13.664,2.336z M14.344,10.672C14.698,9.818,14.875,8.927,14.875,8s-0.183-1.817-0.547-2.672
	c-0.344-0.823-0.833-1.552-1.469-2.188c-0.636-0.635-1.365-1.13-2.188-1.484C9.827,1.302,8.939,1.125,8.007,1.125
	c-0.933,0-1.826,0.183-2.68,0.547C4.504,2.016,3.775,2.505,3.139,3.141S2.014,4.506,1.67,5.329C1.305,6.173,1.123,7.061,1.123,7.993
	c0,0.933,0.182,1.826,0.547,2.68c0.344,0.823,0.833,1.552,1.469,2.188c0.635,0.636,1.364,1.125,2.188,1.469
	c0.854,0.364,1.747,0.547,2.68,0.547c0.932,0,1.82-0.183,2.664-0.547c0.823-0.344,1.552-0.833,2.188-1.469
	C13.495,12.224,13.989,11.495,14.344,10.672z M10.25,11.188c0.104,0.104,0.156,0.24,0.156,0.406c0,0.156-0.052,0.287-0.156,0.391
	s-0.24,0.162-0.406,0.172H6.063c-0.167-0.01-0.302-0.067-0.406-0.172c-0.104-0.104-0.156-0.234-0.156-0.391
	c0-0.167,0.052-0.302,0.156-0.406s0.239-0.156,0.406-0.156h1.328V6.11H6.453c-0.156,0-0.289-0.052-0.398-0.156
	S5.891,5.715,5.891,5.548c0-0.156,0.055-0.286,0.164-0.391c0.109-0.104,0.242-0.161,0.398-0.172h1.5
	c0.156,0.011,0.289,0.068,0.398,0.172s0.164,0.234,0.164,0.391v5.484h1.328C10.01,11.031,10.146,11.083,10.25,11.188z M7.555,3.844
	C7.664,3.948,7.797,4,7.953,4s0.289-0.052,0.398-0.156s0.164-0.237,0.164-0.398S8.46,3.152,8.351,3.048
	C8.242,2.944,8.109,2.892,7.953,2.892S7.664,2.944,7.555,3.048S7.391,3.282,7.391,3.439C7.391,3.604,7.445,3.74,7.555,3.844z"/>
</svg>
