<?xml version="1.0" encoding="iso-8859-1"?>
<!-- Generator: Adobe Illustrator 22.0.1, SVG Export Plug-In . SVG Version: 6.00 Build 0)  -->
<svg version="1.1" id="Layer_1" xmlns="http://www.w3.org/2000/svg" xmlns:xlink="http://www.w3.org/1999/xlink" x="0px" y="0px"
	 viewBox="0 0 16 16" style="enable-background:new 0 0 16 16;" xml:space="preserve">
<path d="M16.001,7.484c0,1.021-0.214,2-0.641,2.938c-0.406,0.896-0.979,1.688-1.719,2.375c-0.74,0.688-1.589,1.224-2.547,1.609
	C10.115,14.791,9.083,14.984,8,14.984c-0.854,0-1.688-0.125-2.5-0.375l-2.313,1.313C3.093,15.974,3.001,16,2.914,16
	c-0.089,0-0.175-0.021-0.258-0.063c-0.178-0.094-0.281-0.24-0.313-0.438l-0.359-3.063c-0.646-0.698-1.139-1.466-1.477-2.305
	C0.168,9.293-0.001,8.41-0.001,7.483c0-1.021,0.213-1.995,0.641-2.922c0.406-0.896,0.979-1.688,1.719-2.375
	c0.739-0.688,1.588-1.224,2.547-1.609C5.885,0.193,6.916,0,8,0c1.083,0,2.114,0.193,3.094,0.578
	c0.958,0.386,1.807,0.922,2.547,1.609c0.739,0.688,1.313,1.479,1.719,2.375C15.787,5.491,16.001,6.465,16.001,7.484z M14.876,7.493
	c0-0.859-0.178-1.68-0.531-2.461C14.001,4.272,13.511,3.593,12.876,3c-0.636-0.594-1.365-1.052-2.188-1.375
	c-0.854-0.333-1.75-0.5-2.688-0.5s-1.834,0.167-2.688,0.5C4.489,1.958,3.759,2.42,3.124,3.008C2.488,3.597,1.999,4.271,1.655,5.031
	C1.301,5.812,1.124,6.63,1.124,7.484c0,0.802,0.153,1.57,0.461,2.305c0.307,0.734,0.752,1.398,1.336,1.992
	c0.094,0.094,0.146,0.203,0.156,0.328l0.281,2.422l1.797-1.016c0.146-0.083,0.302-0.099,0.469-0.047
	c0.76,0.261,1.552,0.391,2.375,0.391c0.938,0,1.833-0.172,2.688-0.516c0.822-0.323,1.552-0.778,2.188-1.367
	c0.635-0.588,1.125-1.263,1.469-2.023C14.698,9.172,14.876,8.353,14.876,7.493z M5.165,6.898C5.326,7.06,5.407,7.26,5.407,7.5
	S5.326,7.94,5.165,8.103C5.003,8.265,4.803,8.345,4.563,8.345s-0.44-0.081-0.602-0.242C3.799,7.942,3.719,7.741,3.719,7.5
	c0-0.239,0.08-0.44,0.242-0.602C4.122,6.737,4.322,6.651,4.563,6.64C4.803,6.651,5.003,6.737,5.165,6.898z M8.603,6.898
	C8.764,7.06,8.845,7.26,8.845,7.5S8.764,7.94,8.603,8.103C8.441,8.265,8.241,8.345,8.001,8.345s-0.44-0.081-0.602-0.242
	C7.237,7.942,7.157,7.741,7.157,7.5c0-0.239,0.08-0.44,0.242-0.602C7.56,6.737,7.76,6.651,8.001,6.64
	C8.24,6.651,8.44,6.737,8.603,6.898z M12.04,6.898C12.201,7.06,12.282,7.26,12.282,7.5s-0.081,0.44-0.242,0.602
	c-0.162,0.162-0.362,0.242-0.602,0.242s-0.44-0.081-0.602-0.242c-0.162-0.161-0.242-0.362-0.242-0.602
	c0-0.239,0.08-0.44,0.242-0.602c0.161-0.161,0.361-0.247,0.602-0.258C11.678,6.651,11.878,6.737,12.04,6.898z"/>
</svg>
