<?xml version="1.0" encoding="iso-8859-1"?>
<!-- Generator: Adobe Illustrator 22.0.1, SVG Export Plug-In . SVG Version: 6.00 Build 0)  -->
<svg version="1.1" id="Calque_1" xmlns="http://www.w3.org/2000/svg" xmlns:xlink="http://www.w3.org/1999/xlink" x="0px" y="0px"
	 viewBox="0 0 16 16" style="enable-background:new 0 0 16 16;" xml:space="preserve">
<g transform="translate(0,-952.36218)">
	<path d="M14.468,952.362c0.17,0,0.34,0.17,0.34,0.34v15.319c0,0.17-0.17,0.34-0.34,0.34c-4.306,0-8.63,0-12.936,0
		c-0.17,0-0.34-0.17-0.34-0.34v-12.255c0-0.17,0.17-0.34,0.34-0.34h3.404v-2.723c0-0.17,0.17-0.34,0.34-0.34H14.468z
		 M14.128,953.043H5.617c0,4.885,0,9.753,0,14.638h3.064v-3.064c0-0.17,0.17-0.34,0.34-0.34h1.702c0.17,0,0.34,0.17,0.34,0.34v3.064
		h3.064V953.043z M13.447,953.383c0.17,0,0.34,0.17,0.34,0.34v1.702c0,0.17-0.17,0.34-0.34,0.34h-1.702c-0.17,0-0.34-0.17-0.34-0.34
		v-1.702c0-0.17,0.17-0.34,0.34-0.34H13.447z M10.723,953.383c0.17,0,0.34,0.17,0.34,0.34v1.702c0,0.17-0.17,0.34-0.34,0.34H9.021
		c-0.17,0-0.34-0.17-0.34-0.34v-1.702c0-0.17,0.17-0.34,0.34-0.34H10.723z M8,953.383c0.17,0,0.34,0.17,0.34,0.34v1.702
		c0,0.17-0.17,0.34-0.34,0.34H6.298c-0.17,0-0.34-0.17-0.34-0.34v-1.702c0-0.17,0.17-0.34,0.34-0.34H8z M13.106,954.064h-1.021
		v1.021h1.021V954.064z M10.383,954.064H9.362v1.021h1.021V954.064z M7.66,954.064H6.638v1.021H7.66V954.064z M13.447,956.107
		c0.17,0,0.34,0.17,0.34,0.34v1.702c0,0.17-0.17,0.34-0.34,0.34h-1.702c-0.17,0-0.34-0.17-0.34-0.34v-1.702
		c0-0.17,0.17-0.34,0.34-0.34H13.447z M10.723,956.107c0.17,0,0.34,0.17,0.34,0.34v1.702c0,0.17-0.17,0.34-0.34,0.34H9.021
		c-0.17,0-0.34-0.17-0.34-0.34v-1.702c0-0.17,0.17-0.34,0.34-0.34H10.723z M8,956.107c0.17,0,0.34,0.17,0.34,0.34v1.702
		c0,0.17-0.17,0.34-0.34,0.34H6.298c-0.17,0-0.34-0.17-0.34-0.34v-1.702c0-0.17,0.17-0.34,0.34-0.34H8z M4.936,956.107H1.872v11.574
		h3.064V956.107z M4.255,956.447c0.17,0,0.34,0.17,0.34,0.34v1.702c0,0.17-0.17,0.34-0.34,0.34H2.553c-0.17,0-0.34-0.17-0.34-0.34
		v-1.702c0-0.17,0.17-0.34,0.34-0.34H4.255z M13.106,956.788h-1.021v1.021h1.021V956.788z M10.383,956.788H9.362v1.021h1.021
		V956.788z M7.66,956.788H6.638v1.021H7.66V956.788z M3.915,957.128H2.894v1.021h1.021V957.128z M13.447,958.83
		c0.17,0,0.34,0.17,0.34,0.34v1.702c0,0.17-0.17,0.34-0.34,0.34h-1.702c-0.17,0-0.34-0.17-0.34-0.34v-1.702
		c0-0.17,0.17-0.34,0.34-0.34H13.447z M10.723,958.83c0.17,0,0.34,0.17,0.34,0.34v1.702c0,0.17-0.17,0.34-0.34,0.34H9.021
		c-0.17,0-0.34-0.17-0.34-0.34v-1.702c0-0.17,0.17-0.34,0.34-0.34H10.723z M8,958.83c0.17,0,0.34,0.17,0.34,0.34v1.702
		c0,0.17-0.17,0.34-0.34,0.34H6.298c-0.17,0-0.34-0.17-0.34-0.34v-1.702c0-0.17,0.17-0.34,0.34-0.34H8z M4.255,959.171
		c0.17,0,0.34,0.17,0.34,0.34v1.702c0,0.17-0.17,0.34-0.34,0.34H2.553c-0.17,0-0.34-0.17-0.34-0.34v-1.702
		c0-0.17,0.17-0.34,0.34-0.34H4.255z M13.106,959.511h-1.021v1.021h1.021V959.511z M10.383,959.511H9.362v1.021h1.021V959.511z
		 M7.66,959.511H6.638v1.021H7.66V959.511z M3.915,959.852H2.894v1.021h1.021V959.852z M13.447,961.554c0.17,0,0.34,0.17,0.34,0.34
		v1.702c0,0.17-0.17,0.34-0.34,0.34h-1.702c-0.17,0-0.34-0.17-0.34-0.34v-1.702c0-0.17,0.17-0.34,0.34-0.34H13.447z M10.723,961.554
		c0.17,0,0.34,0.17,0.34,0.34v1.702c0,0.17-0.17,0.34-0.34,0.34H9.021c-0.17,0-0.34-0.17-0.34-0.34v-1.702
		c0-0.17,0.17-0.34,0.34-0.34H10.723z M8,961.554c0.17,0,0.34,0.17,0.34,0.34v1.702c0,0.17-0.17,0.34-0.34,0.34H6.298
		c-0.17,0-0.34-0.17-0.34-0.34v-1.702c0-0.17,0.17-0.34,0.34-0.34H8z M4.255,961.894c0.17,0,0.34,0.17,0.34,0.34v1.702
		c0,0.17-0.17,0.34-0.34,0.34H2.553c-0.17,0-0.34-0.17-0.34-0.34v-1.702c0-0.17,0.17-0.34,0.34-0.34H4.255z M13.106,962.234h-1.021
		v1.021h1.021V962.234z M10.383,962.234H9.362v1.021h1.021V962.234z M7.66,962.234H6.638v1.021H7.66V962.234z M3.915,962.575H2.894
		v1.021h1.021V962.575z M4.255,964.617c0.17,0,0.34,0.17,0.34,0.34v1.702c0,0.17-0.17,0.34-0.34,0.34H2.553
		c-0.17,0-0.34-0.17-0.34-0.34v-1.702c0-0.17,0.17-0.34,0.34-0.34H4.255z M10.383,964.958H9.362v2.723h1.021V964.958z
		 M3.915,965.298H2.894v1.021h1.021V965.298z"/>
</g>
</svg>
