<?xml version="1.0" encoding="iso-8859-1"?>
<!-- Generator: Adobe Illustrator 22.0.1, SVG Export Plug-In . SVG Version: 6.00 Build 0)  -->
<svg version="1.1" id="Layer_1" xmlns="http://www.w3.org/2000/svg" xmlns:xlink="http://www.w3.org/1999/xlink" x="0px" y="0px"
	 viewBox="0 0 16 16" style="enable-background:new 0 0 16 16;" xml:space="preserve">
<path d="M14.672,5.437c0.198,0.469,0.297,0.958,0.297,1.469s-0.097,1.003-0.289,1.477c-0.193,0.474-0.472,0.894-0.836,1.258
	l-3.875,3.828c-0.5,0.49-1.073,0.864-1.719,1.125c-0.625,0.25-1.281,0.375-1.969,0.375H6.266c-0.677,0-1.333-0.13-1.969-0.391
	c-0.656-0.261-1.234-0.638-1.734-1.133s-0.88-1.065-1.141-1.711c-0.261-0.625-0.391-1.276-0.391-1.953s0.125-1.328,0.375-1.953
	c0.26-0.646,0.641-1.213,1.141-1.703l4.984-4.938c0.114-0.104,0.247-0.156,0.398-0.156S8.21,1.086,8.32,1.195
	s0.164,0.24,0.164,0.391S8.432,1.865,8.328,1.969L3.344,6.907C2.958,7.293,2.66,7.73,2.453,8.22c-0.208,0.49-0.31,1.011-0.305,1.563
	s0.109,1.073,0.313,1.563c0.203,0.49,0.502,0.93,0.898,1.32c0.396,0.391,0.841,0.688,1.336,0.891s1.023,0.305,1.586,0.305
	s1.091-0.102,1.586-0.305c0.495-0.203,0.935-0.492,1.32-0.867l3.859-3.828c0.26-0.26,0.461-0.555,0.602-0.883
	s0.211-0.68,0.211-1.055s-0.07-0.729-0.211-1.063c-0.141-0.333-0.344-0.63-0.609-0.891c-0.266-0.26-0.568-0.458-0.906-0.594
	c-0.339-0.135-0.695-0.208-1.07-0.219c-0.375,0.011-0.732,0.083-1.07,0.219C9.654,4.512,9.354,4.704,9.094,4.954L5.453,8.563
	C5.245,8.771,5.141,9.029,5.141,9.336c0,0.308,0.109,0.568,0.328,0.781c0.219,0.214,0.479,0.326,0.781,0.336h0.016
	c0.302-0.01,0.563-0.12,0.781-0.328l3.188-3.156c0.114-0.104,0.247-0.156,0.398-0.156s0.281,0.055,0.391,0.164
	s0.164,0.24,0.164,0.391s-0.052,0.279-0.156,0.383l-3.203,3.156c-0.208,0.208-0.448,0.367-0.719,0.477
	c-0.271,0.109-0.552,0.164-0.844,0.164H6.25c-0.292,0-0.573-0.055-0.844-0.164c-0.271-0.109-0.513-0.271-0.727-0.484
	s-0.375-0.453-0.484-0.719S4.028,9.634,4.023,9.337s0.049-0.578,0.164-0.844c0.114-0.266,0.276-0.502,0.484-0.711l3.641-3.609
	c0.375-0.364,0.799-0.641,1.273-0.828c0.474-0.188,0.966-0.281,1.477-0.281c0.531,0,1.031,0.097,1.5,0.289
	c0.469,0.193,0.891,0.472,1.266,0.836C14.192,4.552,14.474,4.968,14.672,5.437z"/>
</svg>
