<?xml version="1.0" encoding="iso-8859-1"?>
<!-- Generator: Adobe Illustrator 22.0.1, SVG Export Plug-In . SVG Version: 6.00 Build 0)  -->
<svg version="1.1" id="Layer_1" xmlns="http://www.w3.org/2000/svg" xmlns:xlink="http://www.w3.org/1999/xlink" x="0px" y="0px"
	 viewBox="0 0 16 16" style="enable-background:new 0 0 16 16;" xml:space="preserve">
<g>
	<g>
		<g>
			<path d="M5.828,5.828C4.494,7.161,2.333,7.161,1,5.828S-0.333,2.333,1,1s3.495-1.333,4.828,0S7.161,4.494,5.828,5.828z
				 M4.862,4.862c0.8-0.8,0.8-2.097,0-2.897s-2.097-0.8-2.897,0s-0.8,2.097,0,2.897S4.062,5.662,4.862,4.862z M15,15
				c-1.333,1.333-3.495,1.333-4.828,0s-1.333-3.495,0-4.828s3.495-1.333,4.828,0S16.333,13.667,15,15z M14.035,14.035
				c0.8-0.8,0.8-2.097,0-2.897c-0.8-0.8-2.097-0.8-2.897,0c-0.8,0.8-0.8,2.097,0,2.897C11.938,14.834,13.235,14.834,14.035,14.035z
				 M2.734,14.276c-0.289-0.242-0.327-0.673-0.084-0.962l9.654-11.505c0.243-0.289,0.671-0.329,0.962-0.085
				c0.289,0.242,0.327,0.673,0.084,0.962L3.696,14.192C3.453,14.481,3.025,14.52,2.734,14.276z"/>
		</g>
	</g>
</g>
</svg>
