<?xml version="1.0" encoding="iso-8859-1"?>
<!-- Generator: Adobe Illustrator 22.0.1, SVG Export Plug-In . SVG Version: 6.00 Build 0)  -->
<svg version="1.1" id="Layer_1" xmlns="http://www.w3.org/2000/svg" xmlns:xlink="http://www.w3.org/1999/xlink" x="0px" y="0px"
	 viewBox="0 0 16 16" style="enable-background:new 0 0 16 16;" xml:space="preserve">
<g>
	<path d="M4.788,9.909l0.486,0.535l-0.568,0.485l-0.502-0.551c-0.411,0.239-0.897,0.37-1.44,0.37C1.127,10.748,0,9.538,0,7.91
		C0,6.28,1.127,5.071,2.764,5.071S5.528,6.28,5.528,7.91C5.528,8.707,5.257,9.407,4.788,9.909z M3.677,9.794L2.945,8.987
		l0.576-0.485l0.724,0.806c0.28-0.37,0.436-0.855,0.436-1.398c0-1.209-0.757-2.106-1.917-2.106c-1.177,0-1.917,0.897-1.917,2.106
		c0,1.201,0.74,2.106,1.917,2.106C3.11,10.016,3.414,9.933,3.677,9.794z"/>
	<path d="M10.222,8.197H7.186v2.452H6.363V5.162h0.823v2.303h3.036V5.162h0.823v5.487h-0.823V8.197z"/>
	<path d="M12.232,9.242c0.37,0.411,0.963,0.773,1.728,0.773c0.889,0,1.201-0.453,1.201-0.847c0-0.576-0.625-0.741-1.324-0.921
		c-0.88-0.23-1.9-0.485-1.9-1.604c0-0.905,0.798-1.563,1.942-1.563c0.847,0,1.513,0.272,1.999,0.765L15.4,6.453
		c-0.42-0.444-0.995-0.642-1.588-0.642c-0.609,0-1.028,0.313-1.028,0.773c0,0.494,0.592,0.65,1.275,0.823
		C14.955,7.646,16,7.926,16,9.094c0,0.855-0.592,1.654-2.073,1.654c-0.979,0-1.695-0.354-2.164-0.872L12.232,9.242z"/>
</g>
</svg>
