<?xml version="1.0" encoding="iso-8859-1"?>
<!-- Generator: Adobe Illustrator 22.0.1, SVG Export Plug-In . SVG Version: 6.00 Build 0)  -->
<svg version="1.1" id="Calque_1" xmlns="http://www.w3.org/2000/svg" xmlns:xlink="http://www.w3.org/1999/xlink" x="0px" y="0px"
	 viewBox="0 0 16 16" style="enable-background:new 0 0 16 16;" xml:space="preserve">
<path d="M15.281,0v1.817H8.225V0H7.506v2.537h1.549v2.07h1.043v7.408c0,0.372-0.303,0.675-0.675,0.675H7.621
	c-0.373,0-0.676-0.303-0.676-0.675V9.423c0-1.911-1.554-3.465-3.465-3.465H0v0.719h3.48c1.514,0,2.746,1.232,2.746,2.746v1.719
	H4.354V9.944c0-0.769-0.625-1.394-1.395-1.394H0v0.718h2.959c0.373,0,0.676,0.304,0.676,0.676v2.592C3.635,14.446,5.189,16,7.099,16
	h2.844c1.911,0,3.465-1.554,3.465-3.465V4.606h1.043v-2.07H16V0H15.281z M7.621,13.408h1.802c0.769,0,1.394-0.625,1.394-1.394
	v-1.198h1.873v1.719c0,1.514-1.232,2.746-2.746,2.746H7.099c-1.514,0-2.746-1.232-2.746-2.746v-0.676h1.873v0.155
	C6.226,12.783,6.852,13.408,7.621,13.408z M12.69,4.606v5.492h-1.873V4.606H12.69z M13.733,2.536v1.351H9.789V2.536H13.733z"/>
</svg>
