<?xml version="1.0" encoding="iso-8859-1"?>
<!-- Generator: Adobe Illustrator 22.0.1, SVG Export Plug-In . SVG Version: 6.00 Build 0)  -->
<svg version="1.1" id="Calque_1" xmlns="http://www.w3.org/2000/svg" xmlns:xlink="http://www.w3.org/1999/xlink" x="0px" y="0px"
	 viewBox="0 0 16 16" style="enable-background:new 0 0 16 16;" xml:space="preserve">
<g>
	<path d="M12.48,12.943V8.735c0-2.474-2.006-4.48-4.48-4.48s-4.48,2.006-4.48,4.48v4.208c-0.842,0.04-1.493,0.755-1.453,1.598
		c0.039,0.813,0.709,1.453,1.523,1.454h8.819c0.843-0.001,1.526-0.685,1.525-1.529C13.934,13.652,13.294,12.982,12.48,12.943z
		 M4.554,8.735C4.553,6.832,6.095,5.288,7.998,5.287c0.001,0,0.001,0,0.002,0c1.903,0,3.446,1.543,3.446,3.446v4.206H4.554V8.735z
		 M12.468,14.963c-0.019,0.001-0.039,0.001-0.058,0H3.59c-0.273-0.016-0.481-0.25-0.464-0.523c0.015-0.25,0.214-0.45,0.464-0.464
		h8.819c0.273-0.016,0.507,0.192,0.523,0.464C12.949,14.713,12.741,14.947,12.468,14.963z"/>
	<path d="M8,2.868c0.286,0,0.517-0.231,0.517-0.517V0.512c0-0.286-0.231-0.517-0.517-0.517S7.483,0.226,7.483,0.512v1.839
		C7.483,2.636,7.714,2.868,8,2.868z"/>
	<path d="M11.657,3.993c0.005-0.004,0.009-0.008,0.013-0.012l1.391-1.305c0.205-0.199,0.209-0.526,0.01-0.731
		c-0.194-0.199-0.512-0.209-0.718-0.022l-1.391,1.304c-0.211,0.192-0.227,0.519-0.035,0.73S11.446,4.185,11.657,3.993z"/>
	<path d="M4.329,3.981c0.096,0.09,0.222,0.14,0.353,0.14C4.968,4.12,5.2,3.889,5.2,3.603c0-0.143-0.059-0.28-0.164-0.377
		L3.645,1.922C3.437,1.726,3.109,1.736,2.914,1.945C2.718,2.153,2.729,2.481,2.937,2.676L4.329,3.981z"/>
</g>
</svg>
