<?xml version="1.0" encoding="iso-8859-1"?>
<!-- Generator: Adobe Illustrator 22.0.1, SVG Export Plug-In . SVG Version: 6.00 Build 0)  -->
<svg version="1.1" id="Calque_1" xmlns="http://www.w3.org/2000/svg" xmlns:xlink="http://www.w3.org/1999/xlink" x="0px" y="0px"
	 viewBox="0 0 16 16" style="enable-background:new 0 0 16 16;" xml:space="preserve">
<g>
	<path d="M9.88,3.404h1.702c0.17,0,0.34-0.17,0.34-0.34V1.362c0-0.17-0.17-0.34-0.34-0.34H9.88c-0.17,0-0.34,0.17-0.34,0.34v1.702
		C9.557,3.234,9.71,3.387,9.88,3.404z M10.221,1.702h1.021v1.021h-1.021V1.702z"/>
	<path d="M9.88,11.574h1.702c0.17,0,0.34-0.17,0.34-0.34V9.532c0-0.17-0.17-0.34-0.34-0.34H9.88c-0.17,0-0.34,0.17-0.34,0.34v1.702
		C9.557,11.404,9.71,11.557,9.88,11.574z M10.221,9.872h1.021v1.021h-1.021V9.872z"/>
	<path d="M9.88,8.851h1.702c0.17,0,0.34-0.17,0.34-0.34V6.809c0-0.17-0.17-0.34-0.34-0.34H9.88c-0.17,0-0.34,0.17-0.34,0.34v1.702
		C9.557,8.681,9.71,8.834,9.88,8.851z M10.221,7.149h1.021V8.17h-1.021V7.149z"/>
	<path d="M9.88,6.128h1.702c0.17,0,0.34-0.17,0.34-0.34V4.085c0-0.17-0.17-0.34-0.34-0.34H9.88c-0.17,0-0.34,0.17-0.34,0.34v1.702
		C9.557,5.957,9.71,6.111,9.88,6.128z M10.221,4.426h1.021v1.021h-1.021V4.426z"/>
	<path d="M7.157,3.404h1.702c0.17,0,0.34-0.17,0.34-0.34V1.362c0-0.17-0.17-0.34-0.34-0.34H7.157c-0.17,0-0.34,0.17-0.34,0.34v1.702
		C6.833,3.234,6.987,3.387,7.157,3.404z M7.497,1.702h1.021v1.021H7.497V1.702z"/>
	<path d="M4.433,8.851h1.702c0.17,0,0.34-0.17,0.34-0.34V6.809c0-0.17-0.17-0.34-0.34-0.34H4.433c-0.17,0-0.34,0.17-0.34,0.34v1.702
		C4.11,8.681,4.263,8.834,4.433,8.851z M4.774,7.149h1.021V8.17H4.774V7.149z"/>
	<path d="M4.433,6.128h1.702c0.17,0,0.34-0.17,0.34-0.34V4.085c0-0.17-0.17-0.34-0.34-0.34H4.433c-0.17,0-0.34,0.17-0.34,0.34v1.702
		C4.11,5.957,4.263,6.111,4.433,6.128z M4.774,4.426h1.021v1.021H4.774V4.426z"/>
	<path d="M4.433,3.404h1.702c0.17,0,0.34-0.17,0.34-0.34V1.362c0-0.17-0.17-0.34-0.34-0.34H4.433c-0.17,0-0.34,0.17-0.34,0.34v1.702
		C4.11,3.234,4.263,3.387,4.433,3.404z M4.774,1.702h1.021v1.021H4.774V1.702z"/>
	<path d="M12.604,0H3.412c-0.17,0-0.34,0.17-0.34,0.34v2.723v0.34v0.34v10.366v1.549c0,0.17,0.17,0.34,0.34,0.34
		c0.511,0,1.038,0,1.549,0c0.562,0,1.14,0,1.702,0c1.974,0,3.949,0,5.923,0c0.17,0,0.34-0.17,0.34-0.34V0.34
		C12.944,0.153,12.791,0,12.604,0z M8.519,15.319H7.497v-2.723h1.021V15.319z M12.28,15.319L12.28,15.319H9.199v-3.064
		c0-0.17-0.17-0.34-0.34-0.34H7.157c-0.17,0-0.34,0.17-0.34,0.34v3.064H6.68H4.978H3.77v-1.209c0-3.455,0-6.911,0-10.366
		c0-1.021,0-2.043,0-3.064h8.511C12.28,0.681,12.28,15.319,12.28,15.319z"/>
	<path d="M4.433,11.574h1.702c0.17,0,0.34-0.17,0.34-0.34V9.532c0-0.17-0.17-0.34-0.34-0.34H4.433c-0.17,0-0.34,0.17-0.34,0.34
		v1.702C4.11,11.404,4.263,11.557,4.433,11.574z M4.774,9.872h1.021v1.021H4.774V9.872z"/>
	<path d="M7.157,8.851h1.702c0.17,0,0.34-0.17,0.34-0.34V6.809c0-0.17-0.17-0.34-0.34-0.34H7.157c-0.17,0-0.34,0.17-0.34,0.34v1.702
		C6.833,8.681,6.987,8.834,7.157,8.851z M7.497,7.149h1.021V8.17H7.497V7.149z"/>
	<path d="M7.157,6.128h1.702c0.17,0,0.34-0.17,0.34-0.34V4.085c0-0.17-0.17-0.34-0.34-0.34H7.157c-0.17,0-0.34,0.17-0.34,0.34v1.702
		C6.833,5.957,6.987,6.111,7.157,6.128z M7.497,4.426h1.021v1.021H7.497V4.426z"/>
	<path d="M7.157,11.574h1.702c0.17,0,0.34-0.17,0.34-0.34V9.532c0-0.17-0.17-0.34-0.34-0.34H7.157c-0.17,0-0.34,0.17-0.34,0.34
		v1.702C6.833,11.404,6.987,11.557,7.157,11.574z M7.497,9.872h1.021v1.021H7.497V9.872z"/>
</g>
</svg>
