<?xml version="1.0" encoding="iso-8859-1"?>
<!-- Generator: Adobe Illustrator 22.0.1, SVG Export Plug-In . SVG Version: 6.00 Build 0)  -->
<svg version="1.1" id="Calque_1" xmlns="http://www.w3.org/2000/svg" xmlns:xlink="http://www.w3.org/1999/xlink" x="0px" y="0px"
	 viewBox="0 0 16 16" style="enable-background:new 0 0 16 16;" xml:space="preserve">
<g>
	<path d="M9.814,12.056c-0.111-0.878-0.459-1.71-1.006-2.405L7.599,8.107C7.066,7.412,6.779,6.56,6.784,5.684
		c0-0.01-0.005-0.019-0.006-0.029v-0.33c0-0.446,0.343-0.808,0.778-0.848c-0.064,1.009,0.397,2,1.263,2.583
		C8.895,7.112,8.983,7.138,9.074,7.14C9.23,7.138,9.375,7.061,9.462,6.932C9.609,6.715,9.551,6.42,9.334,6.274
		C8.745,5.861,8.44,5.167,8.507,4.47h0.11c0.041,0,0.077-0.013,0.115-0.023h1.036c0.262,0,0.474-0.212,0.474-0.474V2.238
		c0-0.262-0.212-0.474-0.474-0.474H8.611c-0.041,0-0.077,0.014-0.115,0.023H3.991c-0.1-0.007-0.201-0.007-0.301,0
		C3.522,1.809,3.379,1.919,3.314,2.076c-0.243,0.59-0.48,1.214-0.7,1.793C2.61,3.882,2.605,3.896,2.601,3.91
		C2.532,4.163,2.68,4.424,2.933,4.493c0.347,0.117,0.58,0.443,0.578,0.81v0.405c0,0.015,0.007,0.027,0.008,0.041
		C3.514,6.463,3.444,7.175,3.303,7.876l-1.232,6.153c-0.021,0.104-0.031,0.209-0.031,0.315c-0.002,0.901,0.727,1.632,1.627,1.634
		h4.788L8.461,16c0.068,0,0.136-0.004,0.203-0.013c0.894-0.112,1.527-0.927,1.416-1.82L9.814,12.056z M9.091,2.712h0.202v0.763
		H9.091V2.712z M4.089,2.712h4.048v0.786c-0.032-0.001-0.063-0.005-0.094,0H7.628C6.666,3.498,5.876,4.252,5.827,5.21H4.465
		C4.439,4.638,4.14,4.113,3.661,3.799C3.8,3.437,3.943,3.074,4.089,2.712z M8.461,15.029H3.667
		c-0.053,0.002-0.106-0.002-0.158-0.013c-0.37-0.074-0.609-0.433-0.536-0.803L4.228,8.09C4.353,7.46,4.429,6.822,4.454,6.181h1.411
		c0.089,0.922,0.438,1.801,1.006,2.533l1.191,1.515C8.5,10.79,8.778,11.46,8.866,12.166l0.266,2.111
		c0.002,0.02,0.003,0.041,0.003,0.061C9.14,14.715,8.838,15.024,8.461,15.029z"/>
	<path d="M7.813,10.397l-0.121-0.156c-0.091-0.115-0.23-0.181-0.376-0.179H4.54c-0.225,0.001-0.419,0.161-0.463,0.382l-0.74,3.689
		c-0.008,0.034-0.012,0.069-0.012,0.104c0,0.262,0.212,0.474,0.474,0.474h4.533l0.006-0.012c0.019,0,0.037-0.001,0.056-0.003
		c0.26-0.032,0.445-0.269,0.413-0.529l-0.249-1.983C8.478,11.531,8.22,10.913,7.813,10.397z M4.378,13.762l0.549-2.741h2.145
		c0.287,0.376,0.468,0.821,0.526,1.289l0.197,1.451H4.378z"/>
	<polygon points="9.085,7.141 9.074,7.14 9.068,7.141 	"/>
	<path d="M13.012,2.55c-0.524,0-0.948,0.424-0.948,0.948c0,0.524,0.424,0.948,0.948,0.948c0.006,0,0.012,0,0.018,0
		c0.524-0.01,0.94-0.442,0.931-0.966C13.95,2.964,13.529,2.55,13.012,2.55z M13.012,3.816c-0.176,0-0.318-0.142-0.318-0.318
		s0.142-0.318,0.318-0.318V3.169c0.004,0,0.008,0,0.012,0c0.176,0.006,0.313,0.154,0.306,0.329
		C13.33,3.674,13.187,3.816,13.012,3.816z"/>
	<path d="M10.49,8.228c-0.524,0-0.948,0.425-0.948,0.948s0.425,0.948,0.948,0.948s0.948-0.425,0.948-0.948S11.014,8.228,10.49,8.228
		z M10.49,9.495c-0.176,0-0.318-0.142-0.318-0.318s0.142-0.318,0.318-0.318s0.318,0.142,0.318,0.318S10.666,9.495,10.49,9.495z"/>
	<path d="M12.376,5.696c-0.699,0-1.266,0.567-1.266,1.266s0.567,1.266,1.266,1.266c0.699,0,1.266-0.567,1.266-1.266
		S13.075,5.696,12.376,5.696z M12.376,7.592c-0.348,0-0.63-0.282-0.63-0.63s0.282-0.63,0.63-0.63s0.63,0.282,0.63,0.63
		S12.724,7.592,12.376,7.592z"/>
	<path d="M11.745,2.533c0.699,0,1.266-0.567,1.266-1.266S12.445,0,11.745,0s-1.266,0.567-1.266,1.266
		C10.479,1.966,11.046,2.533,11.745,2.533z M11.745,0.636c0.348,0,0.63,0.282,0.63,0.63s-0.282,0.63-0.63,0.63
		s-0.63-0.282-0.63-0.63S11.397,0.636,11.745,0.636z"/>
</g>
</svg>
