<?xml version="1.0" encoding="iso-8859-1"?>
<!-- Generator: Adobe Illustrator 22.0.1, SVG Export Plug-In . SVG Version: 6.00 Build 0)  -->
<svg version="1.1" id="Layer_1" xmlns="http://www.w3.org/2000/svg" xmlns:xlink="http://www.w3.org/1999/xlink" x="0px" y="0px"
	 viewBox="0 0 16 16" style="enable-background:new 0 0 16 16;" xml:space="preserve">
<path d="M15.685,13.755c-0.125,0.448-0.386,0.786-0.781,1.016c-0.261,0.146-0.542,0.224-0.844,0.234H1.935
	c-0.479-0.021-0.878-0.19-1.195-0.508c-0.318-0.318-0.482-0.711-0.492-1.18c0-0.302,0.072-0.583,0.219-0.844L6.53,1.848
	c0.239-0.406,0.583-0.669,1.031-0.789c0.447-0.12,0.875-0.07,1.281,0.148c0.26,0.156,0.469,0.365,0.625,0.625l6.063,10.641
	C15.758,12.88,15.81,13.307,15.685,13.755z M14.56,13.036L8.482,2.395C8.441,2.312,8.376,2.244,8.287,2.192
	C8.198,2.14,8.102,2.114,7.998,2.114c-0.053,0-0.1,0.005-0.141,0.016C7.701,2.172,7.587,2.26,7.514,2.396L1.451,13.037
	c-0.053,0.083-0.078,0.177-0.078,0.281c0,0.156,0.055,0.287,0.164,0.391s0.242,0.162,0.398,0.172H14.06
	c0.104,0,0.197-0.026,0.281-0.078c0.135-0.083,0.224-0.198,0.266-0.344C14.648,13.313,14.633,13.172,14.56,13.036z M8.443,5.028
	c0.119,0.12,0.18,0.269,0.18,0.445v4.188c0,0.177-0.061,0.326-0.18,0.445c-0.12,0.12-0.269,0.18-0.445,0.18
	c-0.178,0-0.326-0.06-0.445-0.18c-0.12-0.12-0.18-0.268-0.18-0.445V5.473c0-0.177,0.06-0.325,0.18-0.445
	c0.119-0.12,0.268-0.18,0.445-0.18C8.175,4.849,8.323,4.909,8.443,5.028z M8.443,11.466c0.119,0.12,0.18,0.269,0.18,0.445v0.188
	c0,0.177-0.061,0.326-0.18,0.445c-0.12,0.12-0.269,0.18-0.445,0.18c-0.178,0-0.326-0.06-0.445-0.18
	c-0.12-0.12-0.18-0.268-0.18-0.445v-0.188c0-0.177,0.06-0.325,0.18-0.445c0.119-0.12,0.268-0.18,0.445-0.18
	S8.323,11.346,8.443,11.466z"/>
</svg>
