<?xml version="1.0" encoding="iso-8859-1"?>
<!-- Generator: Adobe Illustrator 22.0.1, SVG Export Plug-In . SVG Version: 6.00 Build 0)  -->
<svg version="1.1" id="Calque_1" xmlns="http://www.w3.org/2000/svg" xmlns:xlink="http://www.w3.org/1999/xlink" x="0px" y="0px"
	 viewBox="0 0 16 16" style="enable-background:new 0 0 16 16;" xml:space="preserve">
<path d="M11.381,7.058c0,0.559-0.136,1.127-0.406,1.703c-0.225,0.473-0.539,0.945-0.942,1.418c-0.369,0.421-0.725,0.774-1.068,1.059
	c-0.343,0.286-0.598,0.485-0.765,0.601c-0.064,0.04-0.131,0.06-0.203,0.06c-0.072,0-0.137-0.02-0.195-0.06
	c-0.167-0.115-0.422-0.315-0.765-0.601c-0.343-0.286-0.699-0.638-1.068-1.059C5.564,9.707,5.25,9.234,5.025,8.761
	C4.754,8.184,4.619,7.617,4.619,7.058c0-0.398,0.092-0.781,0.277-1.15C5.075,5.55,5.323,5.237,5.64,4.965
	c0.317-0.271,0.677-0.484,1.081-0.64C7.13,4.176,7.556,4.101,8,4.101c0.444,0,0.873,0.075,1.288,0.225
	c0.398,0.155,0.755,0.369,1.072,0.64c0.317,0.271,0.565,0.585,0.744,0.942C11.288,6.277,11.381,6.66,11.381,7.058z M10.551,6.184
	c-0.138-0.282-0.337-0.535-0.597-0.756c-0.26-0.222-0.553-0.396-0.882-0.523C8.727,4.778,8.369,4.715,8,4.715
	c-0.369,0-0.727,0.064-1.072,0.19C6.599,5.031,6.306,5.206,6.05,5.428C5.794,5.65,5.595,5.901,5.454,6.179
	C5.313,6.459,5.242,6.752,5.242,7.057c0,0.467,0.115,0.948,0.346,1.444c0.201,0.421,0.484,0.847,0.847,1.28
	c0.294,0.334,0.582,0.624,0.865,0.869C7.582,10.895,7.815,11.083,8,11.216c0.184-0.132,0.418-0.321,0.701-0.566
	c0.282-0.245,0.571-0.535,0.865-0.869c0.363-0.432,0.646-0.859,0.847-1.28c0.231-0.49,0.346-0.968,0.346-1.435
	C10.758,6.761,10.689,6.467,10.551,6.184z M8.67,5.674c0.21,0.086,0.398,0.214,0.562,0.381c0.164,0.167,0.291,0.356,0.381,0.566
	c0.089,0.21,0.134,0.432,0.134,0.666c0,0.234-0.045,0.457-0.134,0.67C9.524,8.17,9.397,8.359,9.233,8.523
	C9.068,8.687,8.881,8.812,8.67,8.899C8.46,8.986,8.237,9.028,8,9.028c-0.236,0-0.46-0.043-0.67-0.129S6.932,8.686,6.768,8.518
	c-0.164-0.167-0.291-0.356-0.38-0.566c-0.09-0.21-0.134-0.432-0.134-0.666c0-0.234,0.045-0.455,0.134-0.666s0.216-0.399,0.381-0.566
	C6.933,5.887,7.12,5.761,7.331,5.674C7.54,5.587,7.764,5.545,8,5.545C8.237,5.545,8.46,5.588,8.67,5.674z M8.796,8.086
	c0.213-0.213,0.325-0.478,0.337-0.796c-0.012-0.323-0.124-0.589-0.337-0.8C8.582,6.28,8.317,6.169,8,6.157
	C7.683,6.169,7.418,6.28,7.205,6.49c-0.213,0.21-0.323,0.477-0.329,0.8c0.006,0.317,0.115,0.583,0.329,0.796
	C7.418,8.3,7.683,8.408,8,8.414C8.317,8.409,8.582,8.3,8.796,8.086z"/>
<path d="M6.465,15.331c-0.036,0-0.073-0.004-0.11-0.012c-1.088-0.244-2.128-0.74-3.007-1.437c-0.217-0.171-0.253-0.485-0.082-0.702
	c0.171-0.215,0.486-0.253,0.702-0.082c0.762,0.604,1.663,1.033,2.606,1.244c0.27,0.061,0.439,0.328,0.378,0.598
	C6.9,15.173,6.694,15.331,6.465,15.331z M9.575,15.323c-0.228,0-0.434-0.156-0.487-0.388c-0.063-0.269,0.105-0.537,0.375-0.6
	c0.942-0.218,1.841-0.653,2.598-1.26c0.214-0.17,0.528-0.137,0.703,0.078c0.172,0.216,0.138,0.53-0.078,0.703
	c-0.873,0.699-1.909,1.201-2.998,1.453C9.649,15.319,9.612,15.323,9.575,15.323z M1.707,11.569c-0.185,0-0.363-0.103-0.45-0.28
	C0.761,10.273,0.506,9.182,0.5,8.044C0.499,7.768,0.721,7.542,0.997,7.541c0.001,0,0.002,0,0.003,0c0.275,0,0.499,0.222,0.5,0.497
	c0.005,0.986,0.226,1.933,0.656,2.812c0.121,0.248,0.019,0.548-0.229,0.669C1.855,11.553,1.781,11.569,1.707,11.569z M14.312,11.532
	c-0.073,0-0.146-0.016-0.217-0.05c-0.249-0.119-0.354-0.418-0.233-0.667C14.285,9.935,14.5,8.987,14.5,8
	c0-0.276,0.224-0.541,0.5-0.541s0.5,0.183,0.5,0.459V8c0,1.139-0.248,2.231-0.738,3.249C14.676,11.428,14.497,11.532,14.312,11.532z
	 M1.671,5.504c-0.072,0-0.145-0.016-0.214-0.048C1.208,5.338,1.101,5.04,1.22,4.79c0.478-1.008,1.19-1.914,2.06-2.619
	c0.215-0.175,0.53-0.142,0.703,0.073c0.174,0.214,0.141,0.529-0.073,0.703C3.155,3.56,2.537,4.345,2.123,5.219
	C2.038,5.399,1.858,5.504,1.671,5.504z M14.274,5.394c-0.184,0-0.36-0.102-0.448-0.278c-0.429-0.866-1.061-1.641-1.825-2.239
	c-0.217-0.17-0.255-0.484-0.085-0.702c0.17-0.218,0.483-0.256,0.702-0.085c0.881,0.69,1.609,1.583,2.104,2.582
	c0.122,0.248,0.021,0.547-0.227,0.67C14.425,5.377,14.35,5.394,14.274,5.394z M6.385,1.687c-0.227,0-0.432-0.155-0.486-0.385
	C5.835,1.033,6.001,0.764,6.27,0.7c0.563-0.133,1.142-0.2,1.724-0.2c0.553,0.032,1.082,0.057,1.608,0.171
	c0.27,0.059,0.44,0.325,0.382,0.595c-0.059,0.27-0.321,0.443-0.595,0.383C8.936,1.55,8.468,1.5,8,1.5c-0.002,0-0.004,0-0.006,0
	C7.49,1.5,6.987,1.559,6.5,1.673C6.461,1.683,6.423,1.687,6.385,1.687z"/>
</svg>
